
        <svg xmlns="http://www.w3.org/2000/svg" xmlns:xlink="http://www.w3.org/1999/xlink" version="1.1" width="3187.5" 
        height="1125" viewBox="0 0 3187.5 1125">
			
			<g transform="scale(9.375) translate(10, 10)">
				<defs id="SvgjsDefs2021"><linearGradient id="SvgjsLinearGradient2026"><stop id="SvgjsStop2027" stop-color="#2d388a" offset="0"></stop><stop id="SvgjsStop2028" stop-color="#00aeef" offset="1"></stop></linearGradient></defs><g id="SvgjsG2022" featureKey="symbolFeature-0" transform="matrix(0.20000000298023224,0,0,0.20000000298023224,-1.2000000000000002,-1.2000000000000002)" fill="url(#SvgjsLinearGradient2026)"><g xmlns="http://www.w3.org/2000/svg" class="st0" style="display: none;"><g class="st1" style="display: inline;"><rect x="-343" y="987" class="st2" width="512" height="512" style="fill: url(#SvgjsLinearGradient2026); stroke: url(#SvgjsLinearGradient2026); stroke-width: 0.1; stroke-miterlimit: 10;"></rect><line class="st3" x1="-343" y1="1483" x2="169" y2="1483" style="fill: none; stroke: url(#SvgjsLinearGradient2026); stroke-width: 0.1; stroke-miterlimit: 10;"></line><line class="st3" x1="-343" y1="1467" x2="169" y2="1467" style="fill: none; stroke: url(#SvgjsLinearGradient2026); stroke-width: 0.1; stroke-miterlimit: 10;"></line><line class="st3" x1="-343" y1="1451" x2="169" y2="1451" style="fill: none; stroke: url(#SvgjsLinearGradient2026); stroke-width: 0.1; stroke-miterlimit: 10;"></line><line class="st3" x1="-343" y1="1435" x2="169" y2="1435" style="fill: none; stroke: url(#SvgjsLinearGradient2026); stroke-width: 0.1; stroke-miterlimit: 10;"></line><line class="st3" x1="-343" y1="1419" x2="169" y2="1419" style="fill: none; stroke: url(#SvgjsLinearGradient2026); stroke-width: 0.1; stroke-miterlimit: 10;"></line><line class="st3" x1="-343" y1="1403" x2="169" y2="1403" style="fill: none; stroke: url(#SvgjsLinearGradient2026); stroke-width: 0.1; stroke-miterlimit: 10;"></line><line class="st3" x1="-343" y1="1387" x2="169" y2="1387" style="fill: none; stroke: url(#SvgjsLinearGradient2026); stroke-width: 0.1; stroke-miterlimit: 10;"></line><line class="st3" x1="-343" y1="1371" x2="169" y2="1371" style="fill: none; stroke: url(#SvgjsLinearGradient2026); stroke-width: 0.1; stroke-miterlimit: 10;"></line><line class="st3" x1="-343" y1="1355" x2="169" y2="1355" style="fill: none; stroke: url(#SvgjsLinearGradient2026); stroke-width: 0.1; stroke-miterlimit: 10;"></line><line class="st3" x1="-343" y1="1339" x2="169" y2="1339" style="fill: none; stroke: url(#SvgjsLinearGradient2026); stroke-width: 0.1; stroke-miterlimit: 10;"></line><line class="st3" x1="-343" y1="1323" x2="169" y2="1323" style="fill: none; stroke: url(#SvgjsLinearGradient2026); stroke-width: 0.1; stroke-miterlimit: 10;"></line><line class="st3" x1="-343" y1="1307" x2="169" y2="1307" style="fill: none; stroke: url(#SvgjsLinearGradient2026); stroke-width: 0.1; stroke-miterlimit: 10;"></line><line class="st3" x1="-343" y1="1291" x2="169" y2="1291" style="fill: none; stroke: url(#SvgjsLinearGradient2026); stroke-width: 0.1; stroke-miterlimit: 10;"></line><line class="st3" x1="-343" y1="1275" x2="169" y2="1275" style="fill: none; stroke: url(#SvgjsLinearGradient2026); stroke-width: 0.1; stroke-miterlimit: 10;"></line><line class="st3" x1="-343" y1="1259" x2="169" y2="1259" style="fill: none; stroke: url(#SvgjsLinearGradient2026); stroke-width: 0.1; stroke-miterlimit: 10;"></line><line class="st3" x1="-343" y1="1243" x2="169" y2="1243" style="fill: none; stroke: url(#SvgjsLinearGradient2026); stroke-width: 0.1; stroke-miterlimit: 10;"></line><line class="st3" x1="-343" y1="1227" x2="169" y2="1227" style="fill: none; stroke: url(#SvgjsLinearGradient2026); stroke-width: 0.1; stroke-miterlimit: 10;"></line><line class="st3" x1="-343" y1="1211" x2="169" y2="1211" style="fill: none; stroke: url(#SvgjsLinearGradient2026); stroke-width: 0.1; stroke-miterlimit: 10;"></line><line class="st3" x1="-343" y1="1195" x2="169" y2="1195" style="fill: none; stroke: url(#SvgjsLinearGradient2026); stroke-width: 0.1; stroke-miterlimit: 10;"></line><line class="st3" x1="-343" y1="1179" x2="169" y2="1179" style="fill: none; stroke: url(#SvgjsLinearGradient2026); stroke-width: 0.1; stroke-miterlimit: 10;"></line><line class="st3" x1="-343" y1="1163" x2="169" y2="1163" style="fill: none; stroke: url(#SvgjsLinearGradient2026); stroke-width: 0.1; stroke-miterlimit: 10;"></line><line class="st3" x1="-343" y1="1147" x2="169" y2="1147" style="fill: none; stroke: url(#SvgjsLinearGradient2026); stroke-width: 0.1; stroke-miterlimit: 10;"></line><line class="st3" x1="-343" y1="1131" x2="169" y2="1131" style="fill: none; stroke: url(#SvgjsLinearGradient2026); stroke-width: 0.1; stroke-miterlimit: 10;"></line><line class="st3" x1="-343" y1="1115" x2="169" y2="1115" style="fill: none; stroke: url(#SvgjsLinearGradient2026); stroke-width: 0.1; stroke-miterlimit: 10;"></line><line class="st3" x1="-343" y1="1099" x2="169" y2="1099" style="fill: none; stroke: url(#SvgjsLinearGradient2026); stroke-width: 0.1; stroke-miterlimit: 10;"></line><line class="st3" x1="-343" y1="1083" x2="169" y2="1083" style="fill: none; stroke: url(#SvgjsLinearGradient2026); stroke-width: 0.1; stroke-miterlimit: 10;"></line><line class="st3" x1="-343" y1="1067" x2="169" y2="1067" style="fill: none; stroke: url(#SvgjsLinearGradient2026); stroke-width: 0.1; stroke-miterlimit: 10;"></line><line class="st3" x1="-343" y1="1051" x2="169" y2="1051" style="fill: none; stroke: url(#SvgjsLinearGradient2026); stroke-width: 0.1; stroke-miterlimit: 10;"></line><line class="st3" x1="-343" y1="1035" x2="169" y2="1035" style="fill: none; stroke: url(#SvgjsLinearGradient2026); stroke-width: 0.1; stroke-miterlimit: 10;"></line><line class="st3" x1="-343" y1="1019" x2="169" y2="1019" style="fill: none; stroke: url(#SvgjsLinearGradient2026); stroke-width: 0.1; stroke-miterlimit: 10;"></line><line class="st3" x1="-343" y1="1003" x2="169" y2="1003" style="fill: none; stroke: url(#SvgjsLinearGradient2026); stroke-width: 0.1; stroke-miterlimit: 10;"></line><line class="st3" x1="153" y1="987" x2="153" y2="1499" style="fill: none; stroke: url(#SvgjsLinearGradient2026); stroke-width: 0.1; stroke-miterlimit: 10;"></line><line class="st3" x1="137" y1="987" x2="137" y2="1499" style="fill: none; stroke: url(#SvgjsLinearGradient2026); stroke-width: 0.1; stroke-miterlimit: 10;"></line><line class="st3" x1="121" y1="987" x2="121" y2="1499" style="fill: none; stroke: url(#SvgjsLinearGradient2026); stroke-width: 0.1; stroke-miterlimit: 10;"></line><line class="st3" x1="105" y1="987" x2="105" y2="1499" style="fill: none; stroke: url(#SvgjsLinearGradient2026); stroke-width: 0.1; stroke-miterlimit: 10;"></line><line class="st3" x1="89" y1="987" x2="89" y2="1499" style="fill: none; stroke: url(#SvgjsLinearGradient2026); stroke-width: 0.1; stroke-miterlimit: 10;"></line><line class="st3" x1="73" y1="987" x2="73" y2="1499" style="fill: none; stroke: url(#SvgjsLinearGradient2026); stroke-width: 0.1; stroke-miterlimit: 10;"></line><line class="st3" x1="57" y1="987" x2="57" y2="1499" style="fill: none; stroke: url(#SvgjsLinearGradient2026); stroke-width: 0.1; stroke-miterlimit: 10;"></line><line class="st3" x1="41" y1="987" x2="41" y2="1499" style="fill: none; stroke: url(#SvgjsLinearGradient2026); stroke-width: 0.1; stroke-miterlimit: 10;"></line><line class="st3" x1="25" y1="987" x2="25" y2="1499" style="fill: none; stroke: url(#SvgjsLinearGradient2026); stroke-width: 0.1; stroke-miterlimit: 10;"></line><line class="st3" x1="9" y1="987" x2="9" y2="1499" style="fill: none; stroke: url(#SvgjsLinearGradient2026); stroke-width: 0.1; stroke-miterlimit: 10;"></line><line class="st3" x1="-7" y1="987" x2="-7" y2="1499" style="fill: none; stroke: url(#SvgjsLinearGradient2026); stroke-width: 0.1; stroke-miterlimit: 10;"></line><line class="st3" x1="-23" y1="987" x2="-23" y2="1499" style="fill: none; stroke: url(#SvgjsLinearGradient2026); stroke-width: 0.1; stroke-miterlimit: 10;"></line><line class="st3" x1="-39" y1="987" x2="-39" y2="1499" style="fill: none; stroke: url(#SvgjsLinearGradient2026); stroke-width: 0.1; stroke-miterlimit: 10;"></line><line class="st3" x1="-55" y1="987" x2="-55" y2="1499" style="fill: none; stroke: url(#SvgjsLinearGradient2026); stroke-width: 0.1; stroke-miterlimit: 10;"></line><line class="st3" x1="-71" y1="987" x2="-71" y2="1499" style="fill: none; stroke: url(#SvgjsLinearGradient2026); stroke-width: 0.1; stroke-miterlimit: 10;"></line><line class="st3" x1="-87" y1="987" x2="-87" y2="1499" style="fill: none; stroke: url(#SvgjsLinearGradient2026); stroke-width: 0.1; stroke-miterlimit: 10;"></line><line class="st3" x1="-103" y1="987" x2="-103" y2="1499" style="fill: none; stroke: url(#SvgjsLinearGradient2026); stroke-width: 0.1; stroke-miterlimit: 10;"></line><line class="st3" x1="-119" y1="987" x2="-119" y2="1499" style="fill: none; stroke: url(#SvgjsLinearGradient2026); stroke-width: 0.1; stroke-miterlimit: 10;"></line><line class="st3" x1="-135" y1="987" x2="-135" y2="1499" style="fill: none; stroke: url(#SvgjsLinearGradient2026); stroke-width: 0.1; stroke-miterlimit: 10;"></line><line class="st3" x1="-151" y1="987" x2="-151" y2="1499" style="fill: none; stroke: url(#SvgjsLinearGradient2026); stroke-width: 0.1; stroke-miterlimit: 10;"></line><line class="st3" x1="-167" y1="987" x2="-167" y2="1499" style="fill: none; stroke: url(#SvgjsLinearGradient2026); stroke-width: 0.1; stroke-miterlimit: 10;"></line><line class="st3" x1="-183" y1="987" x2="-183" y2="1499" style="fill: none; stroke: url(#SvgjsLinearGradient2026); stroke-width: 0.1; stroke-miterlimit: 10;"></line><line class="st3" x1="-199" y1="987" x2="-199" y2="1499" style="fill: none; stroke: url(#SvgjsLinearGradient2026); stroke-width: 0.1; stroke-miterlimit: 10;"></line><line class="st3" x1="-215" y1="987" x2="-215" y2="1499" style="fill: none; stroke: url(#SvgjsLinearGradient2026); stroke-width: 0.1; stroke-miterlimit: 10;"></line><line class="st3" x1="-231" y1="987" x2="-231" y2="1499" style="fill: none; stroke: url(#SvgjsLinearGradient2026); stroke-width: 0.1; stroke-miterlimit: 10;"></line><line class="st3" x1="-247" y1="987" x2="-247" y2="1499" style="fill: none; stroke: url(#SvgjsLinearGradient2026); stroke-width: 0.1; stroke-miterlimit: 10;"></line><line class="st3" x1="-263" y1="987" x2="-263" y2="1499" style="fill: none; stroke: url(#SvgjsLinearGradient2026); stroke-width: 0.1; stroke-miterlimit: 10;"></line><line class="st3" x1="-279" y1="987" x2="-279" y2="1499" style="fill: none; stroke: url(#SvgjsLinearGradient2026); stroke-width: 0.1; stroke-miterlimit: 10;"></line><line class="st3" x1="-295" y1="987" x2="-295" y2="1499" style="fill: none; stroke: url(#SvgjsLinearGradient2026); stroke-width: 0.1; stroke-miterlimit: 10;"></line><line class="st3" x1="-311" y1="987" x2="-311" y2="1499" style="fill: none; stroke: url(#SvgjsLinearGradient2026); stroke-width: 0.1; stroke-miterlimit: 10;"></line><line class="st3" x1="-327" y1="987" x2="-327" y2="1499" style="fill: none; stroke: url(#SvgjsLinearGradient2026); stroke-width: 0.1; stroke-miterlimit: 10;"></line></g></g><g xmlns="http://www.w3.org/2000/svg"><g><path d="M366.4,251.1c-2.7,0-4.8,2.2-4.8,4.8v63.2c0,20.1-16.4,36.5-36.5,36.5H152.2c-20.1,0-36.5-16.4-36.5-36.5V192.7    c0-20.1,16.4-36.5,36.5-36.5h156.1c2.7,0,4.8-2.2,4.8-4.8s-2.2-4.8-4.8-4.8H152.2c-25.5,0-46.2,20.7-46.2,46.2v126.4    c0,25.5,20.7,46.2,46.2,46.2h172.9c25.5,0,46.2-20.7,46.2-46.2v-63.3C371.3,253.2,369.1,251.1,366.4,251.1z"></path><path d="M233,295.2l-44.1-88.4c-1.2-2.4-0.2-5.3,2.2-6.5s5.3-0.2,6.5,2.2l38.9,78l161.8-121.4c2.1-1.6,5.2-1.2,6.8,1    s1.2,5.2-1,6.8L233,295.2z"></path></g></g><g xmlns="http://www.w3.org/2000/svg"><path d="M256,506c-66.8,0-129.6-26-176.8-73.2S6,322.8,6,256S32,126.4,79.2,79.2S189.2,6,256,6s129.6,26,176.8,73.2   S506,189.2,506,256s-26,129.6-73.2,176.8S322.8,506,256,506z M256,22C127,22,22,127,22,256s105,234,234,234s234-105,234-234   S385,22,256,22z"></path></g></g><g id="SvgjsG2023" featureKey="nameFeature-0" transform="matrix(1.0817828178405762,0,0,1.0817828178405762,115.24015540641756,23.009086523561862)" fill="#137dc5"><path d="M14.44 22.92 l5.28 0 q4.4 0 4.4 -4.24 q0 -2.2 -1.1 -3.18 t-3.3 -0.98 l-10.96 0 l0 9.6 q1.24 -0.72 2.8 -1 q1.16 -0.2 2.88 -0.2 z M8.76 40 l-4.36 0 l0 -29.84 l15.32 0 q2.64 0 4.6 1.02 t3.04 2.94 t1.08 4.54 t-1.08 4.58 t-3.06 3.02 t-4.58 1.06 l-5.28 0 q-3.44 0 -5.68 1.2 l0 11.48 z M50.36 31.560000000000002 l1.28 2.16 q0.68 1.12 1.72 1.56 q0.72 0.28 1.76 0.28 l1.44 0 l0 4.44 l-1.8 0 q-1.32 0 -2.08 -0.16 q-1.12 -0.24 -2.04 -0.88 q-1 -0.76 -1.92 -2.24 l-3.2 -5.2 l-0.28 0 q-2.28 0 -3.48 0.28 q-0.96 0.2 -2.32 0.92 l0 7.28 l-4.2 0 l0 -20.72 l13.36 0 q1.88 0 3.36 0.8 t2.32 2.24 t0.84 3.2 q0 2.32 -1.22 3.82 t-3.54 2.22 z M45.24 27.4 l3.36 0 q1 0 1.66 -0.52 t0.66 -1.48 q0 -1.24 -0.96 -1.68 q-0.68 -0.32 -2.08 -0.32 l-8.44 0 l0 5.2 q2.2 -1.2 5.8 -1.2 z M82.72 29.48 q0 -2.2 -1.2 -3.8 q-1.04 -1.4 -2.92 -2.16 q-1.72 -0.68 -3.8 -0.68 t-3.84 0.72 q-1.88 0.76 -2.92 2.24 q-1.16 1.6 -1.16 3.84 t1.2 3.84 q1.04 1.44 2.92 2.24 q1.76 0.72 3.8 0.72 t3.84 -0.8 q1.84 -0.84 2.92 -2.36 q1.16 -1.64 1.16 -3.8 z M87.04 29.439999999999998 q0 3.4 -1.8 6.04 q-1.64 2.44 -4.52 3.84 q-2.76 1.32 -5.96 1.32 t-5.96 -1.32 q-2.84 -1.36 -4.48 -3.76 q-1.76 -2.64 -1.76 -6 t1.8 -5.96 q1.64 -2.4 4.52 -3.72 q2.76 -1.28 5.96 -1.28 t5.92 1.2 q2.84 1.28 4.48 3.64 q1.8 2.56 1.8 6 z M110.88 23.4 l-7.8 0 l0 16.6 l-4.12 0 l0 -16.6 l-7.52 0 l0 -4.12 l19.44 0 l0 4.12 z M129.2 33.12 l0.56 0 l-4.04 -7.68 l-4.92 9.48 q1.36 -0.72 3.08 -1.16 q2.48 -0.64 5.32 -0.64 z M123.60000000000001 21.4 l-1.36 -2.6 l4.44 0 l11.2 21.2 l-4.52 0 l-1.64 -3.12 l-2.48 0 q-2.36 0 -5 0.56 q-2.24 0.44 -4.08 1.2 q-1.68 0.64 -2.04 1.12 l-0.12 0.24 l-4.32 0 z M160.16000000000003 21.2 l-2.76 3.2 q-2.2 -1.8 -6.16 -1.8 q-1.56 0 -2.88 0.68 t-1.32 1.56 q0 0.72 0.28 1.08 q0.36 0.52 1.28 0.72 q1.04 0.28 2.96 0.28 q4.16 0 6.56 0.92 q2.12 0.76 2.96 2.28 q0.68 1.24 0.68 3.16 q0 3.6 -3 5.52 q-2.84 1.84 -7.48 1.84 q-2.68 0 -5.18 -1.18 t-4.22 -3.22 l2.96 -3 l0.36 0.4 q0.84 0.88 1.36 1.36 q0.92 0.76 1.92 1.16 q1.24 0.48 2.8 0.48 q2.88 0 4.64 -0.88 t1.76 -2.48 q0 -1.36 -1.56 -1.84 q-1.4 -0.44 -4.84 -0.44 q-4 0 -6.12 -1.4 q-2.44 -1.52 -2.44 -4.76 q0 -1.84 1.2 -3.28 q1.12 -1.4 3.08 -2.18 t4.28 -0.78 q2.48 0 4.44 0.52 q2.32 0.6 4.44 2.08 z M178.56000000000003 32 l-5.24 8 l-4.36 0 l0 -20.72 l4.36 0 l0 13.28 l9.56 -13.28 l5.28 0 l-6.84 9.32 l3.04 5.12 q0.84 1.16 1.8 1.56 q0.68 0.28 1.68 0.28 l1.44 0 l0 4.44 l-1.8 0 q-1.24 0 -2 -0.2 q-0.96 -0.24 -1.88 -0.88 q-1 -0.76 -2.16 -2.2 z"></path></g>
			</g>
		</svg>
	